<svg xmlns="http://www.w3.org/2000/svg" viewBox="0 0 302.36 215.63"><defs><style>.cls-1{fill:#1e5096;fill-rule:evenodd;}</style></defs><g id="Слой_2" data-name="Слой 2"><g id="svg2"><g id="g10"><g id="g16"><g id="g18"><path id="path20" class="cls-1" d="M151.78,184l-8.84.56v-7.19h24.48v7.19l-8.84-.56v20.66h-6.8Z"/><path id="path22" class="cls-1" d="M90.24,180.79c1.86-2.65,4.76-3.87,8.21-3.94,8.27-.16,14,5.22,14,14.09,0,8.22-5.42,14.12-13.15,14.19-4.48,0-7.34-1.19-9.07-3.58l.23,3.14v10.94H83.28v-38h7.15Zm.65,10.28c0,4.29,2.94,8,7.38,8,4,0,7.39-3,7.39-8a7.3,7.3,0,0,0-7.39-7.51H98.1a7.29,7.29,0,0,0-7.21,7.51"/><path id="path24" class="cls-1" d="M201.82,177.39h6.8v11.07l9.51-11.07h8.12l-9.94,11.66,11,15.62h-8.18l-7.27-10.49L208.62,198v6.67h-6.8Z"/><path id="path26" class="cls-1" d="M230,177.39h6.74v16l11.55-16h6.35v27.29H247.9V188.77l-11.55,15.91H230Z"/><path id="path28" class="cls-1" d="M145.1,4.42c-2.74-2.46-6.2-6.3-10-3.36-1.69,1.45-2,4.31-1.61,7,.83,5.36,4.75,10.54,9.53,10.54a5.78,5.78,0,0,0,5.27-3.79C149.91,10.88,147.78,6.82,145.1,4.42ZM99.82,72.52c1.6.92,3.24,1.83,5.61,3.15-1.07-8.23-1.18-18.19,1-26.16a6.66,6.66,0,0,0-4.17-1.58c-.22,0-.44,0-.66,0v-.08h0c-2.2-12.06-15.24-19.17-23.47-12.38a13.86,13.86,0,0,0-4.6,10.54c.28,4,2.38,7.6,5.21,10.73,3.43,3.79,9.43,8.51,15.2,12.2a24.23,24.23,0,0,1,1.87-7.72c0,4.73.44,7.63,4,11.26Zm23.82,21.63a22.53,22.53,0,0,0,13-.44l1.18-3.1a.63.63,0,0,1,.67-.49l2.37.1-.06-1a1.27,1.27,0,0,1,.18-.8c.71-1.11.8-1.29,1.5-2.4a.78.78,0,0,1,.66-.37l3.21-.07,1.26-20.38-.2,0a.3.3,0,0,1-.13-.16.23.23,0,0,1-.07-.18.28.28,0,0,1,0-.09v0a.34.34,0,0,1-.13-.27.35.35,0,0,1,0-.18A.3.3,0,0,1,147,64a.31.31,0,0,1,.1-.23.39.39,0,0,1-.09-.24.35.35,0,0,1,.32-.36l.08,0h.15v-.51a.42.42,0,0,1,.38-.44h0a.4.4,0,0,1,.39.42l0,.69.25.11c.17.08.17.13.27.32l.27.53.08-.05,1.77.08a12,12,0,0,1,1.22.13,14.93,14.93,0,0,0,1-1.49l-.12-1h0l-1.23-1.84.77-1-.17-.39-.95.17a.42.42,0,0,1-.42-.38c0-.08,0-.35,0-.43a1.33,1.33,0,0,1-.19-.56c0-.07.08-.15.08-.22s0-.08-.07-.08l-.33,0c-.07,0-.09-.15-.06-.2.19-.27.37-.54.56-.8L151,56s-.1-.11,0-.25l.11-.33-1-.13v-.18l1.2-.6c.11-.19.25-.39.38-.57a1.68,1.68,0,0,1,.8-.68,1.31,1.31,0,0,1,1-.1,1.58,1.58,0,0,1,1.31.6,2.54,2.54,0,0,1,.64,1.49,2,2,0,0,1-.19,1.13l.18.19.21-.19,1.71.83c0-.33.14-.53.47-.49,1.07.13,2.21.28,3.28.4.71.27,1.17.95,1.9,2,.16.21.33.41.5.62.21,1.83.41,3.67.62,5.5a1.71,1.71,0,0,1-.15,1.32l-1,1.71-1.4,1.42-1,.36v.09l-.72,2.76.74,5.32,2,5.22,1,4.62h0l.17,1.38-.42,1.26,8.95,10.15c6.37,6.26,12.33,15.56,21.81,20,7.2,3.4,15.36,4.58,23.31-1.06a21.44,21.44,0,0,0,9.15-17.46c0-15.51-18.05-24.9-26.5-34.19-6.18-6.79-10.68-13.25-16.17-20.71a99.67,99.67,0,0,0-9.25-12c-5.18-5.72-14.13-13.82-21.5-15.17-3.15-.58-5.36-.29-7.61,2.37-1.2,1.42-3,3.3-6.35,3.06-5.56-.39-7.4-2.61-13.82.14-5.81,2.8-10.59,9.47-13.6,18.49h0a80.54,80.54,0,0,0-3.2,18.43A87.15,87.15,0,0,0,108.79,78c2.65,6.93,9.35,14.77,14.85,16.18Zm23.42-8.59,1.14-20,0,0a.34.34,0,0,0,.24.1h.26l0,.12,2.61,1a9.86,9.86,0,0,0,1.07.23.43.43,0,0,0,.33-.1c.12-.08.51-.29.91-.51l0,.08.46,4-.83.52-3.61,3.58-.61,1.09L149,77.46l1.36,6.61.4.1-.18.91-.46.42-3.09.06ZM159.92,88l-.49.66-.49.17-1.78-.2-.52-.18-2.29-.76.07-.87L154.2,85h0l-1.58-6.64-.55-1.26,1.26-.68,2.12-1.57h0l2,6.17.91,1.75.77.69-.34.68.76,3.44.39.46Zm-6.23-21.58h0ZM95.29,14.09c-4.63,0-8.39,4.18-8.39,9.33a9.31,9.31,0,0,0,5.72,8.85c.66.24,4.83,1.15,7.49,1.66,3.42.66,3.68,2.66,6.42,2.66,2.92,0,5.29-2.64,5.29-5.88,0-3.54-3.92-5.71-6.43-9.26C103.67,19,101.24,16.19,99,15a8.42,8.42,0,0,0-3.69-.95ZM101,10.88c.47,6.51,11,13.73,15.15,10.3,4.74-3.92-.94-17.93-8.16-18.07C104.09,3.11,101,6.59,101,10.88Zm26.3-7.47c-3.36-1.47-7.16.37-8.48,4.1-1.6,5.85,5.32,16.14,10,14.74,5.34-1.61,4.71-16-1.53-18.84"/><path id="path30" class="cls-1" d="M74.07,71.91c-.78-.71,2.37-5.06,1.18-8.46-.37-1.05-1.31-3.25-.18-4.69a41.66,41.66,0,0,0,2.82,3.13C80,64,82,65.68,83.48,67c10,8.52,18.13,11.64,23.47,19.35,3.74,5.71,11,11.15,18,11.93,21.47,2.38,28.63-2.18,37.44,2.77,5.9,3.14,10.12,7.55,14.83,11.85a63,63,0,0,0,16,10.48c-1.09,1.47-4.28.2-6.49-.47-1.56-.48-2.43.39-3.8,1.62-.48.43-.89.55-.93-.15-.3-2.78-.56-4.46-1.54-4.82-2-.73-4.34,3.13-5.57,2.8-1.28-.56,2.31-7.22.68-8.43-2.11-1.57-6.22,1.88-6.89.16-.18-.46-.1-5-1.87-5.57-2.5-.8-7,10.05-8.91,9.08-1-.39,3.57-10.92,1.35-11.85-2.37-1.13-4.47,6.59-5.28,4.69-.21-.76.79-5,.6-6.53-.09-.74-.85-.94-1.39.29-.46,1.07-1,3.1-1.4,4.13s-.87.89-1.51-.25c-1.29-2.32-2.8-5.75-5.28-4.29-2,1.14-3.3,10-3.69,12.23-.15.89-.4,1.08-.64.5a8.14,8.14,0,0,1-.27-.78c-2.49-7.85-2.36-9.95-4.12-9.85-1.15.07-1.8,1.76-3.22,6.89-.09.56-.44.46-.53,0l-1.22-4.51c-.48-1.89-1.48-3.23-2.53-1.22-.79,1.52-1.64,5.27-2.15,6.85-.11.32-.38.09-.45,0l-1-4.12c-.38-1.55-2.26-1.5-3.71-.49l-2.18,1.63c-.31.23-.51.27-.69,0l0-3.63c0-4.54-2.84-3.73-4.38-2.22-.6.42-2.81,2.73-3.37,3.06-.2.08-.34,0-.31-.28a3.64,3.64,0,0,1,.12-.6l1.2-4.33c.58-2.1.44-2.61,0-2.91s-1.26.4-2.21,1.38l-1.77,1.82c-.33.34-.7.39-.65-.19l.23-2.47c1.09-9.52-1.56-3.46-2.55-1.87l-1.19,1.92c-.07.18-.48.35-.44-.21s0-1.86,0-3c0-1.95.1-3.67-1.31-2.27-1,1-2.2,2.48-3,3.28s-1,.67-.56-.35c.64-1.41,1.62-4.47,1.34-4.67-.58-.4-2.69,1.47-3.09,1.17-.22-.16.1-1.22.39-2.45.56-2.39-.32-3.18-.91-3.41-1.41-.55-4.47,2.16-5,1.78-1-.76,3.2-7.49,1.77-8.9s-5.13,1.13-5.57.76c-.6-.5,1.11-5.16.54-5.61-1.67-1.28-8.64,4.72-9.11,3.94-.31-.51,4.74-7.5,4.14-8.88-.8-1.84-4.41.74-4.77.5s1.12-2.75.6-3.16c-1-.79-4,3.47-4.62,2.86ZM152.88,7c-.68-.72.38-2.39,0-2.84s-2.25,1.32-2.75-.39c-.18-.63-.72-2.06-1.59-2.29a1.27,1.27,0,0,0-1.55.8c3.3,2.92,4.73,8.25,5.84,10.45,1,1.93,2.23,3.34,6.41,5.27a61.3,61.3,0,0,1,7.12,3.41c10.81,6.72,18.44,23.51,28.12,36.09,7.12,9.27,10.63,12.45,20.7,20.45a79.7,79.7,0,0,1,8.46,7.61c.6-1.2-.6-3.46-1.2-4.52a4.49,4.49,0,0,1-.65-3.46c.15-.88.16-1-.45-.65s-1.92,1-2.57.66-.74-1.82-.5-3.46c.15-1,0-1-.94-.8a3,3,0,0,1-2.3-.4c-2.69-2,4.41-7.29,3.19-8.11-1.07-.71-6.81,3.53-9.7.9-1.08-1-.52-4-.36-5.49.1-1,.1-1-.88-.83-.78.17-1.78.58-2.62.7s-1.16-.33-.64-1.15l2.72-4c.4-.59.55-1,.3-1.19s-.55.09-1.07.39l-4.59,2.67c-1.25.72-1.5.45-.78-1.32.25-.63.6-1.39.82-2,.54-.87.24-1.11-.61-1a11.39,11.39,0,0,1-2.4.09c-1-.11-1.26-.37-1-1.37.16-.69.92-2,.71-2.64s-1.19-.48-2.13-.49c-1.22,0-1.63-.63-1.09-1.6a45.49,45.49,0,0,1,3.2-4.17c.44-.55.12-.66-.54-.58a23.38,23.38,0,0,1-4.72.56c-3.35-.44-.61-3.21.54-4.83.69-1,.57-1.48-.66-.94-1.05.45-2.81.95-3.36.32-1.1-1.64,7.3-6.9,6.5-7.75-1-1.13-8.77,4.64-9.82,3.68-.84-.79,1.57-4.45,1.1-4.74-1.39-.87-5.43,2-7.33-.06-2.31-2.16-.27-4.19.52-5.58.29-.52.54-.91.47-1s-.55.06-1.21.45a5.31,5.31,0,0,1-5.16.49,10.32,10.32,0,0,1-2.8-1.69c-2.59-2.09.63-6.06-.1-6.93s-4.31,2-6.07.75c-1.07-.92,1-4.43.64-4.76-.56-.59-3.17,2.89-3.94,2.29-.94-.47,2.38-7.89,1.67-8.23-1.22-.58-5.8,7.66-7.81,6.7-1.14-.55.4-3.44-.21-3.83s-2.28,1.12-3,.41"/><path id="path32" class="cls-1" d="M237.71,163.49H216.82V136.2h6.81v20.66h11V136.2h6.8v20.66h2.77L243.46,169h-5.75Z"/><path id="path34" class="cls-1" d="M187.06,136.2h6.74v15.36l11.55-15.36h6.35v27.29H205V148.13l-11.56,15.36h-6.35Z"/><path id="path36" class="cls-1" d="M173.41,156.86v-14h-8v.27a44.77,44.77,0,0,1-1.92,13.76Zm-19.22,0h2.18c1.64-5,2.49-9.71,2.49-20v-.7h21.35v20.66H183L182.22,169h-5.76v-5.46H160.75l-.46,5.46h-6.1Z"/><path id="path38" class="cls-1" d="M95.38,136.2h24.49v27.29h-6.8V142.83H102.19v20.66H95.38Z"/><path id="path40" class="cls-1" d="M79.29,164a13.82,13.82,0,0,1-14-14.19A14,14,0,0,1,79.6,135.65,13,13,0,0,1,91,141.42l-5.48,4.29c-1.55-2-3.36-3.25-6-3.25A7.3,7.3,0,0,0,72.14,150c0,5,3.6,7.25,7.39,7.25,2.82,0,4.48-1.42,6.1-3.41l5.64,4.05a13.6,13.6,0,0,1-12,6.16"/><path id="path42" class="cls-1" d="M124.23,149.84c0-8.29,5.78-14.19,14.39-14.18A12.62,12.62,0,0,1,149,140.4c2.29,3.08,3,7.22,2.51,11.83H132a4.58,4.58,0,0,0,.3,1.25c2.05,5.7,10.51,5,13.23.87l5,4.16c-2.55,3.54-6.37,5.52-12.36,5.52A13.81,13.81,0,0,1,124.23,149.84Zm19.55-2.48c-.1-3-2.42-4.83-5.79-4.84-2.57,0-5.65,1.64-6,4.84Z"/><path id="path44" class="cls-1" d="M16.26,164c-8,0-12.76-3.32-16.26-7.92l6-4.24c2.57,2.86,5.58,4.83,9.93,4.83,7.36,0,11.7-5.81,11.68-12.26s-4.52-12.11-11.68-12.16a12.52,12.52,0,0,0-9.75,4.46L.7,132a18.55,18.55,0,0,1,15.13-7c11.42,0,19.87,8.56,19.87,19.48A19.11,19.11,0,0,1,16.26,164"/><path id="path46" class="cls-1" d="M20.07,146.59a5.22,5.22,0,1,0-8.43,0l4.21,6.55Z"/><path id="path48" class="cls-1" d="M117.09,177.39h6.8v11.07l9.51-11.07h8.12l-9.94,11.66,11,15.62h-8.17l-7.27-10.49L123.89,198v6.67h-6.8Z"/><path id="path50" class="cls-1" d="M171.36,177.39h6.74v16l11.55-16H196v27.29h-6.73V188.77l-11.56,15.91h-6.35Z"/><path id="path52" class="cls-1" d="M248,136.2h6.74v16l11.55-16h6.35v27.29h-6.73V147.58l-11.56,15.91H248Z"/><path id="path54" class="cls-1" d="M277.72,136.2h6.74v16l11.55-16h6.35v27.29h-6.73V147.58l-11.56,15.91h-6.35Z"/><path id="path56" class="cls-1" d="M40.71,136.2h6.8v11.07L57,136.2h8.12L55.2,147.86l11,15.62H58.06L50.79,153l-3.28,3.82v6.68h-6.8Z"/><path id="path58" class="cls-1" d="M73.09,204.69h9.06L59.89,169.16,37.62,204.69h9.06l13.21-21.18Z"/><path id="path60" class="cls-1" d="M64.1,200.7a5.22,5.22,0,1,1-8.43,0l4.22-6.54Z"/></g></g></g></g></g></svg>