<svg xmlns="http://www.w3.org/2000/svg" viewBox="0 0 130.05 92.75"><defs><style>.cls-1,.cls-2{fill:#fefefe;}.cls-1{fill-rule:evenodd;}</style></defs><g id="Слой_2" data-name="Слой 2"><g id="Слой_1-2" data-name="Слой 1"><path class="cls-1" d="M65.76,3c.29.31,1-.36,1.27-.18s-.4,1.42.09,1.65C68,4.88,70,1.34,70.48,1.59c.31.15-1.12,3.34-.72,3.54s1.46-1.24,1.7-1-.74,1.66-.28,2.05c.76.55,2.32-.73,2.61-.32s-1.07,2.08,0,3A4.45,4.45,0,0,0,75,9.58a2.29,2.29,0,0,0,2.22-.21c.28-.17.48-.25.52-.19s-.08.21-.2.44c-.35.6-1.22,1.47-.23,2.4.82.88,2.56-.35,3.16,0,.2.13-.84,1.7-.48,2S83.8,12,84.26,12.5s-3.27,2.63-2.8,3.33c.24.27,1,.06,1.45-.14s.58,0,.28.41c-.49.7-1.67,1.89-.23,2.08a11.76,11.76,0,0,0,2-.24c.28,0,.42,0,.23.25A18.64,18.64,0,0,0,83.84,20c-.23.42,0,.68.47.69s.82-.1.92.21-.24.84-.31,1.13,0,.55.44.59a4.22,4.22,0,0,0,1,0c.36,0,.5.05.26.43s-.24.59-.35.86c-.31.76-.2.88.33.57l2-1.15c.22-.13.39-.21.46-.17s0,.26-.13.51l-1.17,1.74c-.23.35-.15.55.28.49s.79-.23,1.12-.3.42-.05.38.36c-.07.65-.31,1.94.16,2.36,1.24,1.13,3.71-.69,4.17-.39s-2.53,2.62-1.37,3.49a1.26,1.26,0,0,0,1,.17c.43-.07.47-.07.41.35-.11.7-.07,1.33.21,1.48s.82-.09,1.11-.28.26-.1.19.28a2,2,0,0,0,.28,1.49c.26.45.78,1.43.52,1.94a34.09,34.09,0,0,0-3.64-3.27c-4.33-3.44-5.84-4.81-8.9-8.8C79.5,19.31,76.22,12.09,71.57,9.2a27.1,27.1,0,0,0-3.06-1.47c-1.8-.83-2.34-1.43-2.76-2.26S64.66,2.23,63.24,1a.55.55,0,0,1,.67-.34c.37.1.6.71.68,1,.21.74,1,0,1.18.17s-.31.91,0,1.22M31.86,30.93c.28.26,1.57-1.57,2-1.23.22.18-.41,1.25-.26,1.36s1.71-1,2-.22c.26.6-1.91,3.6-1.78,3.83s3.2-2.25,3.92-1.7c.24.19-.49,2.2-.23,2.41s1.8-.91,2.39-.33-1.19,3.51-.76,3.83c.21.17,1.53-1,2.13-.76.26.09.64.43.39,1.47-.12.53-.26,1-.16,1s1.08-.68,1.33-.5a6,6,0,0,1-.58,2c-.2.44-.1.49.24.16s.88-1,1.3-1.42c.6-.6.55.14.56,1,0,.48,0,1,0,1.29s.15.16.19.08l.51-.82c.42-.69,1.56-3.29,1.09.8l-.09,1.07c0,.24.13.23.28.08l.76-.78c.4-.43.78-.7.94-.6s.26.35,0,1.25l-.52,1.87a1.19,1.19,0,0,0-.05.25c0,.13,0,.16.13.12s1.19-1.13,1.45-1.31c.66-.65,1.87-1,1.89,1v1.55c.08.13.16.12.3,0l.94-.7c.62-.44,1.43-.46,1.59.21L54.26,49c0,.05.15.15.19,0A25.7,25.7,0,0,1,55.38,46c.45-.87.88-.29,1.09.52L57,48.5c0,.19.19.24.23,0,.61-2.2.89-2.93,1.38-3,.76,0,.71.86,1.77,4.24l.12.34c.11.24.21.16.28-.22.16-1,.74-4.77,1.58-5.26,1.07-.63,1.72.85,2.27,1.84.28.49.46.6.65.11s.41-1.31.61-1.78.56-.44.6-.12c.08.66-.35,2.48-.26,2.81.35.82,1.25-2.5,2.27-2s-1,4.93-.58,5.1c.8.42,2.76-4.25,3.83-3.9.76.24.73,2.19.8,2.39.29.74,2.06-.75,3-.07.7.52-.85,3.39-.3,3.62s1.54-1.51,2.4-1.2c.42.16.54.88.66,2.08,0,.3.19.25.4.06.59-.53,1-.9,1.64-.7,1,.29,2.32.84,2.79.2a26.8,26.8,0,0,1-6.87-4.5c-2-1.85-3.84-3.75-6.38-5.1-3.79-2.13-6.87-.17-16.1-1.19-3-.34-6.14-2.68-7.75-5.13-2.29-3.32-5.81-4.66-10.09-8.33a30.76,30.76,0,0,1-2.41-2.18,16.23,16.23,0,0,1-1.21-1.35c-.49.62-.08,1.57.08,2,.51,1.46-.85,3.33-.51,3.64"/><polygon class="cls-2" points="65.28 88.04 68.21 88.04 68.21 79.15 72.01 79.39 72.01 76.3 61.48 76.3 61.48 79.39 65.28 79.15 65.28 88.04"/><path class="cls-1" d="M39.09,82.18A3.14,3.14,0,0,1,42.19,79h.08a3.14,3.14,0,0,1,3.18,3.23,3.21,3.21,0,0,1-3.18,3.44,3.26,3.26,0,0,1-3.18-3.44m-.19-5.77H35.82V92.75h3.09V88l-.1-1.35c.75,1,2,1.54,3.91,1.54,3.32,0,5.65-2.57,5.65-6.1,0-3.82-2.47-6.13-6-6.06a4.18,4.18,0,0,0-3.53,1.69Z"/><polygon class="cls-2" points="86.8 88.04 89.73 88.04 89.73 85.17 91.14 83.52 94.27 88.03 97.79 88.03 93.04 81.31 97.31 76.3 93.82 76.3 89.73 81.06 89.73 76.3 86.8 76.3 86.8 88.04"/><polygon class="cls-2" points="98.93 88.04 101.66 88.04 106.63 81.19 106.63 88.04 109.53 88.04 109.53 76.3 106.8 76.3 101.83 83.17 101.83 76.3 98.93 76.3 98.93 88.04"/><path class="cls-1" d="M54.74,1.47c2.68,1.23,2.95,7.41.65,8.1-2,.6-5-3.82-4.3-6.34a2.72,2.72,0,0,1,3.65-1.76m-8.31-.13c3.11.06,5.55,6.08,3.51,7.77-1.79,1.47-6.31-1.63-6.52-4.43a3.19,3.19,0,0,1,3-3.34M41,6.06a3.61,3.61,0,0,1,1.59.41,9.23,9.23,0,0,1,2.75,2.75c1.08,1.53,2.77,2.46,2.77,4a2.42,2.42,0,0,1-2.28,2.53c-1.18,0-1.29-.86-2.76-1.15-1.14-.22-2.94-.61-3.22-.71a4,4,0,0,1-2.46-3.81,3.82,3.82,0,0,1,3.61-4M66.11,28.58h0Zm2.67,9.28-.16-.19-.33-1.48.15-.3-.34-.29-.38-.76-.86-2.65h0l-.91.68-.54.29.23.54.68,2.86h0l.1.8,0,.37,1,.33.23.07.76.09.21-.07ZM63.25,36.8l1.33,0,.2-.18.08-.39-.17,0-.59-2.84,0-.74.27-.47L66,30.57l.36-.23-.2-1.72v0l-.39.22a.16.16,0,0,1-.14,0,4.14,4.14,0,0,1-.46-.09L64,28.33s0,0,0,0h-.11a.13.13,0,0,1-.1,0h0ZM53.18,40.5c-2.36-.61-5.25-4-6.39-7A37.25,37.25,0,0,1,46.64,27,35.2,35.2,0,0,1,48,19.08h0c1.3-3.88,3.36-6.75,5.85-7.95,2.76-1.19,3.56-.23,6-.06a3.1,3.1,0,0,0,2.73-1.32,3,3,0,0,1,3.27-1c3.17.58,7,4.07,9.25,6.53a43.38,43.38,0,0,1,4,5.15A104.65,104.65,0,0,0,86,29.32c3.64,4,11.4,8,11.4,14.7a9.21,9.21,0,0,1-3.93,7.51C90,54,86.53,53.45,83.43,52c-4.08-1.92-6.64-5.92-9.38-8.62L70.2,39l.18-.54-.07-.6-.43-2L69,33.64l-.32-2.29L69,30.16v0l.45-.15.6-.61.43-.74a.71.71,0,0,0,.07-.56l-.27-2.37a2.75,2.75,0,0,0-.22-.26c-.31-.45-.51-.74-.81-.86l-1.41-.17c-.14,0-.19.07-.21.21l-.73-.35-.09.07-.08-.07a.81.81,0,0,0,.08-.49,1.08,1.08,0,0,0-.27-.64.68.68,0,0,0-.56-.26.57.57,0,0,0-.43,0,.73.73,0,0,0-.34.3,2,2,0,0,0-.16.24l-.52.26v.07l.44.06a1.27,1.27,0,0,1,0,.14.08.08,0,0,0,0,.11l.08.07-.24.35s0,.08,0,.08H65s0,0,0,0,0,.06,0,.09A.43.43,0,0,0,65,25s0,.15,0,.19a.18.18,0,0,0,.18.16l.41-.07.07.17-.33.42.53.79h0l.05.45a6,6,0,0,1-.45.64,4.35,4.35,0,0,0-.52-.06l-.76,0,0,0L64,27.43c0-.09,0-.11-.11-.14l-.11-.05v-.3a.17.17,0,0,0-.17-.18.18.18,0,0,0-.16.19v.22h-.09a.15.15,0,0,0-.14.15.18.18,0,0,0,0,.11.12.12,0,0,0,0,.1.17.17,0,0,0,.06.11.1.1,0,0,0,0,.07.17.17,0,0,0,0,.12v.06a.14.14,0,0,0,0,.07.22.22,0,0,0,.06.07l.09,0L63,36.81l-1.38,0a.35.35,0,0,0-.29.16l-.64,1a.57.57,0,0,0-.08.35l0,.43-1-.05a.27.27,0,0,0-.28.21l-.51,1.34a9.85,9.85,0,0,1-5.6.19M42.93,31.19h0c-1.54-1.56-1.73-2.81-1.73-4.84a10.17,10.17,0,0,0-.8,3.32,35,35,0,0,1-6.54-5.25,7.85,7.85,0,0,1-2.24-4.61,6,6,0,0,1,2-4.54c3.54-2.92,9.14.14,10.09,5.33h0v0H44a2.86,2.86,0,0,1,1.8.68,30.58,30.58,0,0,0-.42,11.25c-1-.57-1.73-1-2.42-1.36M63.8,6.36A2.49,2.49,0,0,1,61.53,8c-2.05,0-3.74-2.23-4.1-4.54a3.33,3.33,0,0,1,.7-3c1.61-1.27,3.1.38,4.28,1.44A4.11,4.11,0,0,1,63.8,6.36"/><polygon class="cls-2" points="102.24 72.67 104.72 72.67 105.05 67.47 103.86 67.47 103.86 58.58 100.93 58.58 100.93 67.47 96.19 67.47 96.19 58.58 93.26 58.58 93.26 70.32 102.24 70.32 102.24 72.67"/><polygon class="cls-2" points="80.46 70.32 83.19 70.32 88.16 63.71 88.16 70.32 91.06 70.32 91.06 58.58 88.33 58.58 83.36 65.19 83.36 58.58 80.46 58.58 80.46 70.32"/><path class="cls-2" d="M66.32,72.67H69l.19-2.35H75.9v2.35h2.47l.34-5.2h-1.2V58.58H68.33v.3c0,4.41-.36,6.46-1.07,8.59h-.94Zm4-5.2a19.3,19.3,0,0,0,.83-5.92v-.12h3.44v6Z"/><polygon class="cls-2" points="41.03 70.32 43.95 70.32 43.95 61.43 48.63 61.43 48.63 70.32 51.56 70.32 51.56 58.58 41.03 58.58 41.03 70.32"/><path class="cls-2" d="M34.11,70.55a5.85,5.85,0,0,0,5.15-2.65l-2.43-1.74a3.2,3.2,0,0,1-2.62,1.47A3,3,0,0,1,31,64.51a3.14,3.14,0,0,1,5.74-1.84l2.36-1.84a5.62,5.62,0,0,0-4.89-2.48,6,6,0,0,0-6.13,6.1,5.93,5.93,0,0,0,6,6.1"/><path class="cls-2" d="M56.77,63.38a2.51,2.51,0,0,1,2.58-2.08,2.2,2.2,0,0,1,2.49,2.08Zm2.66,7.17c2.58,0,4.22-.85,5.32-2.37l-2.16-1.79c-1.17,1.77-4.81,2.08-5.7-.38a2.06,2.06,0,0,1-.12-.53h8.38a7.1,7.1,0,0,0-1.08-5.09,5.43,5.43,0,0,0-4.45-2,5.87,5.87,0,0,0-6.19,6.1,5.94,5.94,0,0,0,6,6.1"/><path class="cls-2" d="M7,70.54a8.22,8.22,0,0,0,8.36-8.38,8.31,8.31,0,0,0-8.55-8.38,8,8,0,0,0-6.51,3l2.36,2a5.39,5.39,0,0,1,4.2-1.92,5.06,5.06,0,0,1,5,5.23,5,5,0,0,1-5,5.27A5.48,5.48,0,0,1,2.59,65.3L0,67.13a8.12,8.12,0,0,0,7,3.41"/><path class="cls-1" d="M6.82,65.87,5,63.05a2.21,2.21,0,0,1-.43-1.31,2.24,2.24,0,1,1,4.48,0,2.21,2.21,0,0,1-.43,1.31Z"/><polygon class="cls-2" points="50.36 88.04 53.29 88.04 53.29 85.17 54.7 83.52 57.83 88.03 61.34 88.03 56.6 81.31 60.87 76.3 57.38 76.3 53.29 81.06 53.29 76.3 50.36 76.3 50.36 88.04"/><polygon class="cls-2" points="73.71 88.04 76.44 88.04 81.41 81.19 81.41 88.04 84.31 88.04 84.31 76.3 81.57 76.3 76.6 83.17 76.6 76.3 73.71 76.3 73.71 88.04"/><polygon class="cls-2" points="106.65 70.32 109.39 70.32 114.36 63.48 114.36 70.32 117.25 70.32 117.25 58.58 114.52 58.58 109.55 65.45 109.55 58.58 106.65 58.58 106.65 70.32"/><polygon class="cls-2" points="119.45 70.32 122.19 70.32 127.16 63.48 127.16 70.32 130.05 70.32 130.05 58.58 127.32 58.58 122.35 65.45 122.35 58.58 119.45 58.58 119.45 70.32"/><polygon class="cls-2" points="17.51 70.32 20.44 70.32 20.44 67.45 21.85 65.8 24.98 70.31 28.49 70.31 23.74 63.6 28.02 58.58 24.52 58.58 20.44 63.34 20.44 58.58 17.51 58.58 17.51 70.32"/><polygon class="cls-1" points="25.76 78.93 20.08 88.04 16.18 88.04 25.76 72.76 35.34 88.04 31.44 88.04 25.76 78.93"/><path class="cls-1" d="M25.76,83.51,24,86.33a2.21,2.21,0,0,0-.43,1.31,2.24,2.24,0,1,0,4.48,0,2.21,2.21,0,0,0-.43-1.31Z"/></g></g></svg>