<svg width="130" height="57" viewBox="0 0 130 57" fill="none" xmlns="http://www.w3.org/2000/svg">
    <path fill-rule="evenodd" clip-rule="evenodd" d="M62.5058 0.189453L66.0766 2.82186V6.76475L62.5058 4.13236V0.189453ZM71.9677 22.5932C72.4314 22.7713 72.9262 22.8527 73.4222 22.8326C74.2639 22.8191 75.0932 22.6263 75.8552 22.2668C76.6173 21.9073 77.2949 21.3894 77.8432 20.7472C77.9675 21.1863 78.1766 21.5965 78.4587 21.9543C78.7407 22.3121 79.0901 22.6106 79.4869 22.8326L82.0601 21.2828C81.1406 19.9538 80.7373 18.3322 80.9265 16.7246V13.021C80.9265 9.796 78.8974 8.36015 76.0407 8.36015C73.8911 8.35126 71.8003 9.06527 70.1008 10.3886L71.7672 13.2603L75.1679 10.7418C77.4238 10.7418 77.5484 11.7105 77.5484 13.4996V13.9782C74.4764 14.0352 69.6133 15.1634 69.6133 19.1176C69.6083 19.6166 69.7043 20.1114 69.8954 20.5719C70.0865 21.0324 70.3687 21.4491 70.725 21.7966C71.0812 22.144 71.504 22.415 71.9677 22.5932ZM75.7816 16.6808C76.5635 16.5309 77.1581 16.4169 77.5825 16.4169V18.639C76.7947 19.4586 75.7412 19.9679 74.6125 20.0749C74.4299 20.096 74.2449 20.0776 74.0698 20.0211C73.8948 19.9646 73.7338 19.8713 73.5976 19.7472C73.4613 19.6232 73.3529 19.4714 73.2796 19.3019C73.2064 19.1324 73.17 18.9491 73.1728 18.7644C73.1728 17.5678 74.0116 17.0892 75.5533 16.7246C75.6311 16.7097 75.7072 16.6951 75.7816 16.6808ZM66.0766 8.79317V22.3198H62.5058V8.79317H66.0766ZM44.2875 14.9869C45.7019 15.9291 47.0437 16.8228 47.0437 18.7302H47.0097C47.0097 20.884 44.9806 22.8326 41.9879 22.7984C40.1038 22.8162 38.2793 22.1346 36.8641 20.884L38.1791 18.0123C39.2852 18.98 40.6484 19.6018 42.1012 19.8014C42.9401 19.8014 43.4049 19.4481 43.4049 18.9695C43.4049 18.1599 42.6427 17.6845 41.3995 16.9091C41.1728 16.7677 40.93 16.6163 40.673 16.4511C39.0066 15.3799 37.5783 14.3087 37.5783 12.0296C37.5783 10.6051 38.6552 8.32596 41.9879 8.32596C43.6512 8.37407 45.2636 8.91305 46.6243 9.87577L45.0712 12.6221C44.185 11.7874 43.0652 11.2464 41.8632 11.0723C41.2058 11.0723 40.7297 11.4256 40.7297 12.0296C40.7297 12.7503 41.4751 13.1997 42.4484 13.7864C42.7677 13.9789 43.1115 14.1862 43.4616 14.4226C43.7334 14.6178 44.0118 14.8033 44.2875 14.9869ZM21.3341 17.9211V8.80458L24.8028 8.82738V16.5992C24.8028 18.9923 25.3922 19.7102 26.9452 19.7102C27.573 19.6505 28.1752 19.4307 28.6949 19.0718C29.2146 18.7129 29.6346 18.2266 29.9152 17.659V8.82738H33.316V15.9952C33.1988 17.8111 33.655 19.6177 34.6196 21.1575L31.763 22.8326C30.9183 22.3214 30.2984 21.5068 30.0286 20.5535C29.5446 21.247 28.9038 21.8152 28.1589 22.2114C27.4141 22.6076 26.5863 22.8205 25.7436 22.8326C22.4676 22.8326 21.3341 20.5535 21.3341 17.9211ZM54.7164 13.7919C55.0347 13.9828 55.3774 14.1884 55.7269 14.4226H55.693C55.9335 14.5954 56.1797 14.7631 56.425 14.9302C57.8786 15.9205 59.2978 16.8873 59.2978 18.7302C59.2978 20.884 57.2686 22.7984 54.2986 22.7984C52.4145 22.8162 50.5901 22.1346 49.1749 20.884L50.4898 18.0123C51.5959 18.98 52.9592 19.6018 54.412 19.8014C55.2509 19.8014 55.7269 19.4481 55.7269 18.9695C55.7269 18.164 54.9644 17.6893 53.7296 16.9208C53.4971 16.776 53.2478 16.6208 52.9837 16.4511C51.3173 15.3799 49.889 14.3087 49.889 12.0296C49.889 10.6051 50.9659 8.32596 54.2986 8.32596C55.9623 8.37137 57.5755 8.91061 58.935 9.87577L57.3933 12.6221C56.5041 11.7853 55.38 11.2442 54.1739 11.0723C53.4598 11.0723 52.9837 11.4256 52.9837 12.0296C52.9837 12.7525 53.7338 13.2025 54.7164 13.7919ZM13.569 19.9609C14.8046 21.3499 16.4155 22.3477 18.2054 22.8326L19.8717 19.7672C18.4561 19.3081 17.1855 18.4828 16.1875 17.3741C15.2944 16.3494 14.5571 15.1973 13.9997 13.9554C15.079 13.5241 16.0081 12.7829 16.6712 11.8245C17.3344 10.866 17.7024 9.73249 17.7292 8.56526C17.7292 4.61097 14.8726 2.69651 11.3131 2.69651C10.6818 2.69651 9.88582 2.7543 9.05821 2.81439C8.16209 2.87946 7.22887 2.94722 6.4274 2.94722C3.55264 2.94722 2.89756 2.48812 1.77911 1.70428C1.74206 1.67831 1.7045 1.65199 1.66633 1.62532L0 4.25771C0.486716 4.90799 1.14714 5.40594 1.90441 5.69357C2.63568 5.93121 3.40418 6.03163 4.17158 5.98985V22.3312H7.85573V14.3543C8.74281 14.4761 9.63592 14.5484 10.531 14.5708C11.0791 16.5947 12.1236 18.448 13.569 19.9609ZM13.9831 7.54189C14.1236 7.91547 14.1834 8.31482 14.1584 8.71341V8.67923C14.1584 10.2974 13.0929 11.6763 10.4743 11.6307C9.59757 11.6403 8.72161 11.5755 7.85573 11.437V5.92148C8.0112 5.90864 8.17388 5.89378 8.34534 5.87812C9.08648 5.81043 9.99168 5.72776 11.1885 5.72776C11.585 5.70272 11.9822 5.76278 12.3538 5.90397C12.7254 6.04516 13.0629 6.26423 13.3438 6.54663C13.6247 6.82903 13.8427 7.1683 13.9831 7.54189ZM27.8977 34.1485H24.3269V47.6637H27.8977V34.1485ZM53.4477 38.7354C52.2591 37.3214 51.3068 36.1883 50.8641 36.1883C48.3589 36.1883 47.4067 39.06 47.4067 40.6098C47.4067 43.0029 48.7216 44.8034 50.7507 44.8034C52.1326 44.7776 53.4517 44.2187 54.4349 43.2422L55.9766 46.1139C54.4492 47.4226 52.5082 48.1417 50.5014 48.1424C45.9784 48.1424 43.9606 44.8034 43.9606 41.0885C43.9632 39.1434 44.7245 37.2768 46.081 35.8898C47.4375 34.5027 49.2809 33.7057 51.2155 33.6699C52.1271 33.6426 53.0341 33.8104 53.8764 34.1621C54.7187 34.5137 55.4771 35.0413 56.1013 35.7097L53.7207 39.06C53.6284 38.9505 53.5374 38.8421 53.4477 38.7354ZM69.259 45.7926C70.5957 44.3614 71.3177 42.4584 71.2686 40.4959H71.2119C71.2119 36.5074 69.0695 33.6699 64.9546 33.6699C63.0522 33.7382 61.2521 34.5532 59.9404 35.94C58.6287 37.3268 57.9098 39.175 57.9377 41.0885C57.9377 45.51 60.5562 48.1424 64.127 48.1424C66.0785 48.0681 67.9223 47.2239 69.259 45.7926ZM65.0793 36.5416C66.859 36.5416 67.9358 37.9774 67.9358 40.3705H67.8792C67.8792 43.0029 66.0881 45.1567 64.127 45.1567C62.4607 45.1567 61.2704 43.6069 61.2704 41.3278C61.2704 38.6954 62.8121 36.5416 65.0793 36.5416ZM76.5058 33.6699L79.8272 43.4815L83.5113 33.6927L86.9121 35.3678L81.3348 47.641H77.9341L72.935 35.1057L76.5058 33.6699ZM91.9225 41.8634C93.9403 41.7608 97.9872 41.5671 99.9936 41.5671C100.403 40.5826 100.604 39.523 100.583 38.4561C100.583 35.8237 98.9167 33.6699 95.346 33.6699C94.4073 33.6802 93.4799 33.8777 92.6177 34.2508C91.7554 34.6239 90.9754 35.1654 90.3227 35.8437C89.6701 36.522 89.1578 37.3238 88.8156 38.2026C88.4734 39.0813 88.308 40.0196 88.3291 40.9631C88.3291 44.7237 90.3355 48.1424 94.8698 48.1424C96.8766 48.1417 98.8177 47.4226 100.345 46.1139L98.8034 43.2422C97.8173 44.2214 96.4937 44.7806 95.1079 44.8034C94.3033 44.817 93.5242 44.5196 92.9315 43.9725C92.3388 43.4254 91.9776 42.6704 91.9225 41.8634ZM95.2326 36.3023C96.7742 36.3023 97.2504 37.4988 97.2504 39.06L91.8998 39.2538C92.0112 38.4419 92.409 37.6973 93.0207 37.1555C93.6324 36.6138 94.4174 36.311 95.2326 36.3023ZM107.6 34.1941V36.7809L107.611 36.7353C109.033 35.1407 110.967 34.0998 113.075 33.7952L113.676 37.7381C113.037 37.9398 112.277 38.1553 111.487 38.3797C110.133 38.764 108.688 39.1741 107.6 39.5842V47.7093H104.029V34.1941H107.6ZM9.44296 47.7207C16.5845 47.7207 20.8695 43.7778 20.8695 37.9205L20.8808 37.8635C20.8808 30.8096 15.8817 28.0518 10.0324 28.0518C6.11024 28.0518 3.8544 28.0518 1.94998 26.7413L0.158902 29.3623C1.35086 30.4174 2.85867 31.0429 4.44388 31.14V44.6097H0.521657V47.7207H9.44296ZM9.80571 31.3338C14.204 31.3338 17.174 33.3736 17.174 37.7951L17.242 37.7381C17.242 41.9203 14.8048 44.5527 9.477 44.6097H8.17335V31.3338H9.80571ZM118.834 33.7725L122.235 42.889L125.828 33.6927L129.149 35.3678L123.72 47.7663L120.024 56.2675L116.623 54.5923L120.568 47.1965L115.433 35.2083L118.834 33.7725ZM36.8739 39.2041C37.1923 39.3951 37.5351 39.6007 37.8846 39.8349L37.8959 39.778C38.1147 39.9336 38.3372 40.0852 38.5587 40.2362C40.024 41.2351 41.444 42.2031 41.444 44.0741C41.444 46.2279 39.4149 48.1424 36.4449 48.1424C34.427 48.0974 32.4718 47.429 30.845 46.2279L32.6587 43.3448C33.7521 44.3394 35.112 44.9893 36.5696 45.2137C37.4085 45.2137 37.8846 44.8604 37.8846 44.3704C37.8846 43.5759 37.1246 43.103 35.8937 42.3371C35.6593 42.1912 35.4078 42.0347 35.1413 41.8634C33.4749 40.7922 32.0466 39.721 32.0466 37.4419C32.0466 36.006 33.1235 33.7269 36.4563 33.7269C38.1215 33.7736 39.7353 34.317 41.0926 35.2881L39.5509 38.0344C38.6617 37.1976 37.5376 36.6565 36.3316 36.4846C35.6174 36.4846 35.1413 36.8379 35.1413 37.4419C35.1413 38.1648 35.8914 38.6148 36.8739 39.2041ZM27.8523 29.5447L24.2816 32.1771V28.2228L27.8523 25.6018V29.5447Z" fill="url(#paint0_linear_1910_13646)"/>
    <defs>
    <linearGradient id="paint0_linear_1910_13646" x1="129.148" y1="44.3236" x2="6.04138" y2="7.74034" gradientUnits="userSpaceOnUse">
    <stop stop-color="#0FA03F"/>
    <stop offset="1" stop-color="#0E67A1"/>
    </linearGradient>
    </defs>
</svg>

