<svg xmlns="http://www.w3.org/2000/svg" xmlns:xlink="http://www.w3.org/1999/xlink" x="0px" y="0px" viewBox="0 0 841.9 595.3" xml:space="preserve"><g id="_x31_"></g><g id="_x31__1_"></g><g id="_x31__2_"></g><g id="_x31__3_"></g><g id="_x31__4_">	<path fill-rule="evenodd" clip-rule="evenodd" fill="#FFFFFF" d="M109.2,406.6H78.8v30.7h30.5V427l11.3,2.3v5.8  c0,4.4-0.8,7.4-2.5,9c-1.7,1.6-4.9,2.4-9.5,2.4h-29c-4.7,0-7.9-0.8-9.5-2.4c-1.7-1.6-2.5-4.6-2.5-9.1v-25.6c0-4.4,0.8-7.4,2.5-9  c1.7-1.6,4.8-2.5,9.5-2.5h29c4.7,0,7.9,0.8,9.6,2.4c1.6,1.6,2.5,4.6,2.5,9v4.6l-11.3,1.8V406.6L109.2,406.6z M143.8,446.5V398h49.7  v8.3h-38.4v10.8h22.4v8.3h-22.4v12h38.8v9.1H143.8L143.8,446.5z M267.6,437c0,3.2-1.2,5.6-3.5,7.2c-2.4,1.6-5.9,2.3-10.7,2.3h-38.6  V398h41.6c3.8,0,6.6,0.7,8.3,2.2c1.7,1.5,2.6,3.9,2.6,7.2v5.9c0,2.3-0.7,4.2-2.1,5.5c-1.4,1.4-3.5,2.3-6.2,2.6  c2.8,0.4,4.9,1.4,6.4,3c1.5,1.6,2.3,3.7,2.3,6.3V437L267.6,437z M256.8,414v-4.6c0-1.2-0.4-2.1-1.1-2.7c-0.8-0.5-2.1-0.8-4.1-0.8  h-25.7v11.6h25.7c2,0,3.3-0.3,4.1-0.8C256.5,416.2,256.8,415.2,256.8,414L256.8,414z M257.1,433.4v-3.7c0-1.6-0.4-2.7-1.1-3.4  c-0.8-0.6-2.2-1-4.3-1h-25.7v12.3h25.7c2.1,0,3.5-0.3,4.3-1C256.7,436.1,257.1,435,257.1,433.4L257.1,433.4z M289.5,446.5V398h49.7  v8.3h-38.4v10.8h22.4v8.3h-22.4v12h38.8v9.1H289.5L289.5,446.5z M396.9,406.4h-25.4v12.9h25.4c1.9,0,3.3-0.3,4-0.8  c0.7-0.5,1.1-1.6,1.1-3v-5.2c0-1.3-0.4-2.3-1.1-2.9C400.2,406.7,398.8,406.4,396.9,406.4L396.9,406.4z M360.4,446.5V398h41.5  c3.9,0,6.6,0.7,8.4,2.2c1.7,1.5,2.6,3.9,2.6,7.2v10.8c0,3.2-0.9,5.6-2.6,7.1c-1.7,1.5-4.5,2.3-8.4,2.3h-30.4v18.9H360.4  L360.4,446.5z M477.9,407.1h-36.5v39.4h-11.3V398h47.7V407.1L477.9,407.1z M526.1,406.4h-25.4v12.9h25.4c1.9,0,3.3-0.3,4-0.8  c0.7-0.5,1.1-1.6,1.1-3v-5.2c0-1.3-0.4-2.3-1.1-2.9C529.4,406.7,528,406.4,526.1,406.4L526.1,406.4z M489.6,446.5V398h41.5  c3.9,0,6.6,0.7,8.4,2.2c1.7,1.5,2.6,3.9,2.6,7.2v10.8c0,3.2-0.9,5.6-2.6,7.1c-1.7,1.5-4.5,2.3-8.4,2.3h-30.4v18.9H489.6  L489.6,446.5z M571.9,427.1h21.3l-10.4-19.7L571.9,427.1L571.9,427.1z M550.2,446.5l27.5-48.5h10.9l27.8,48.5l-12.8,0l-5.8-10.7  h-30.7l-5.7,10.6H550.2L550.2,446.5z M632,446.5V398h11.3v18.8h35.3V398h11.4v48.5h-11.4v-20.9h-35.3v20.9H632L632,446.5z   M723.2,437.7h32.3l-16-30.2L723.2,437.7L723.2,437.7z M706.9,453.4l0.1-15.7h4.9l22.5-39.7h10.9l22.9,39.7h5v15.7l-11.3,0v-6.9  h-43.5l-0.1,6.9H706.9z"></path>	<path fill-rule="evenodd" clip-rule="evenodd" fill="#D4B494" d="M253,510.2c0-4.4,0.8-7.4,2.5-9c1.7-1.6,4.8-2.5,9.5-2.5h35.7  c4.7,0,7.9,0.8,9.6,2.4c1.6,1.6,2.5,4.6,2.5,9v25.6c0,4.4-0.8,7.4-2.5,9c-1.7,1.6-4.8,2.4-9.5,2.4h-35.7c-4.7,0-7.9-0.8-9.5-2.4  c-1.7-1.6-2.5-4.6-2.5-9.1V510.2L253,510.2z M264.3,538.2h37.2v-30.7h-37.2V538.2L264.3,538.2z M359.2,507.4v39.9h-11.3v-39.9  h-22.3v-8.7h55.9v8.7H359.2L359.2,507.4z M395.4,547.3v-48.5h49.7v8.3h-38.4v10.8h22.4v8.3h-22.4v12h38.8v9.1H395.4L395.4,547.3z   M519.5,547.3l-12.1,0l-18.7-35l-19.7,35l-12,0l28.1-48.5h7.8L519.5,547.3L519.5,547.3z M587.6,537.4c0,3.6-0.9,6.2-2.6,7.6  c-1.7,1.5-4.5,2.2-8.4,2.2h-41.5v-48.5h11.1v18h30.4c3.9,0,6.6,0.8,8.4,2.3c1.7,1.5,2.6,3.9,2.6,7.1V537.4L587.6,537.4z   M576.7,534.6v-5.2c0-1.5-0.4-2.5-1.1-3c-0.7-0.5-2.1-0.8-4-0.8h-25.4v12.9h25.4c1.9,0,3.3-0.3,4-0.9  C576.3,537,576.7,536,576.7,534.6z"></path>			<rect x="414.7" y="466.6" transform="matrix(0.7071 -0.7071 0.7071 0.7071 -210.7406 435.4931)" fill-rule="evenodd" clip-rule="evenodd" fill="#D4B494" width="11.1" height="11.1"></rect>	<g>		<polygon fill-rule="evenodd" clip-rule="evenodd" fill="#D4B494" points="312.2,270.7 293.8,252.3 313.1,232.9 293.8,213.5    315.9,191.4 317.1,192.5 335.3,210.7 354.7,191.4 335.3,172 315.9,191.3 293.8,169.2 313.1,149.8 293.8,130.5 316.1,108.1    399.3,191.4 316.1,274.6   "></polygon>		<polygon fill-rule="evenodd" clip-rule="evenodd" fill="#D4B494" points="528.8,270.7 547.2,252.3 527.8,232.9 547.2,213.5    525,191.4 523.9,192.5 505.6,210.7 486.3,191.4 505.6,172 525,191.3 547.2,169.2 527.8,149.8 547.2,130.5 524.8,108.1    441.6,191.4 524.8,274.6   "></polygon>		<polygon fill-rule="evenodd" clip-rule="evenodd" fill="#D4B494" points="341.2,83 359.6,64.7 378.9,84 398.3,64.7 420.5,86.8    419.3,87.9 401.1,106.2 420.5,125.6 439.8,106.2 420.5,86.8 442.6,64.7 462,84 481.4,64.7 503.7,87 420.5,170.2 337.2,87   "></polygon>		<polygon fill-rule="evenodd" clip-rule="evenodd" fill="#D4B494" points="341.2,299.7 359.6,318.1 378.9,298.7 398.3,318.1    420.5,295.9 419.3,294.8 401.1,276.5 420.5,257.2 439.8,276.5 420.5,295.9 442.6,318.1 462,298.7 481.4,318.1 503.7,295.7    420.5,212.5 337.2,295.7   "></polygon>					<rect x="406.5" y="177.4" transform="matrix(0.7071 -0.7071 0.7071 0.7071 -12.158 353.3628)" fill-rule="evenodd" clip-rule="evenodd" fill="#D4B494" width="28" height="28"></rect>		<g>							<rect x="406.1" y="28.8" transform="matrix(0.7071 -0.7071 0.7071 0.7071 92.7934 309.6112)" fill-rule="evenodd" clip-rule="evenodd" fill="#D4B494" width="28" height="28"></rect>							<rect x="406.5" y="325.9" transform="matrix(0.7071 -0.7071 0.7071 0.7071 -117.2035 396.8812)" fill-rule="evenodd" clip-rule="evenodd" fill="#D4B494" width="28" height="28"></rect>		</g>		<g>							<rect x="257.7" y="177.5" transform="matrix(0.7071 -0.7071 0.7071 0.7071 -55.8402 248.2528)" fill-rule="evenodd" clip-rule="evenodd" fill="#D4B494" width="28" height="28"></rect>							<rect x="554.9" y="177.2" transform="matrix(0.7071 -0.7071 0.7071 0.7071 31.4326 458.2474)" fill-rule="evenodd" clip-rule="evenodd" fill="#D4B494" width="28" height="28"></rect>		</g>	</g></g><g id="_x31__5_"></g><g id="_x31__6_"></g><g id="_x31__7_"></g></svg>