<svg id="Слой_1" data-name="Слой 1" xmlns="http://www.w3.org/2000/svg" viewBox="0 0 125.45 126.88"><defs><style>.cls-1,.cls-2{fill:#183a6b;}.cls-1,.cls-3,.cls-4,.cls-5{fill-rule:evenodd;}.cls-3,.cls-6{fill:#1291d1;}.cls-4{fill:#a4bed8;}.cls-5{fill:#fbba00;}</style></defs><path class="cls-1" d="M62.94,49.88c.2-1-.12-1.07-.82-1.62l-4.06-3.18a1.94,1.94,0,0,1-.5-2.35l3-8.12c.75-2,1.13-2.41,3.11-2.84l56.45-12-.05.23-54,12.8,0,.4,2.63-.56a1.81,1.81,0,0,1,.4,0,1.85,1.85,0,0,1,1.85,1.85,1.56,1.56,0,0,1,0,.3l-1,4.82-4.28.9.24-3.89a.59.59,0,0,0-.6-.62h-.07c-.24.07-.46.22-.57.73l-.8,3.66c0,.17-.06.39-.09.53-.11.5-.17.78.33,1.17l.51.4,3,2.31a2,2,0,0,1,.74,2.43l-1.47,7c-.5,2.35-1.51,2.89-3.86,3.39l-5,1.07a2.71,2.71,0,0,1-.4,0,1.87,1.87,0,0,1-1.86-1.85,1.45,1.45,0,0,1,0-.3l1.26-6,4.1-.87-.3,5.15a.58.58,0,0,0,.59.5.65.65,0,0,0,.63-.6h0Z" transform="translate(0 -2)"/><polygon class="cls-2" points="67.82 54.5 73.09 29.7 77.19 28.82 78.37 40.94 78.35 42.45 81.44 27.92 85.54 27.05 80.27 51.86 75.55 52.86 74.09 44.89 74.05 43.6 71.92 53.63 67.82 54.5"/><polygon class="cls-2" points="106.93 32.12 102.75 47.08 96.24 48.46 99.57 24.09 103.42 23.29 101.43 39.07 105.98 22.71 112.02 21.42 110.21 37.21 114.58 20.86 119.72 19.79 111.73 45.17 105.2 46.56 106.93 32.12"/><path class="cls-1" d="M88.45,49.55c.75-.16.81-.51.94-1.1l3.72-17.53c.12-.61-.13-.88-.61-.77a1.26,1.26,0,0,0-.93,1.09L87.85,48.77c-.14.62.22.86.6.78m-4-11.88a3.33,3.33,0,0,1,.16-.64l2.58-6.9a2.54,2.54,0,0,1,2-1.86l6.5-1.38a1.68,1.68,0,0,1,.4-.05,1.92,1.92,0,0,1,1.81,1.53,2.15,2.15,0,0,1,0,.76L96.19,42.2a3.75,3.75,0,0,1-.16.64l-2.58,6.89a2.42,2.42,0,0,1-2,1.76l-6.5,1.37a1.46,1.46,0,0,1-1.05,0,1.81,1.81,0,0,1-1.13-1.19,3.45,3.45,0,0,1,0-1.24Z" transform="translate(0 -2)"/><path class="cls-1" d="M69.71,69.92l.62-.13c.46-.1.63-.19.8-.64l1.34-3.5a3.17,3.17,0,0,0,.23-1.08L73,60.19c0-.41-.21-.58-.5-.51l-.62.13Zm-7.5,13,5.28-24.8L75.8,56.4a1.75,1.75,0,0,1,.4,0,1.87,1.87,0,0,1,1.85,1.85,2.83,2.83,0,0,1,0,.3q-.94,4.43-1.88,8.85a4.94,4.94,0,0,1-1,2.06,4.52,4.52,0,0,1-1.26,1l.53,9.93-5.1,1.07V72.52l-.16-.21-2,9.6Z" transform="translate(0 -2)"/><polygon class="cls-1" points="74.91 78.27 80.18 53.48 85.12 52.42 79.85 77.22 74.91 78.27"/><path class="cls-1" d="M94.37,76.14l5.28-24.81,11.55-2.47-.87,2.76L104,53l-1.69,7.94,5.44-1.16-.86,2.72-5.15,1.12-1.9,8.92L106.45,71l-.26,1.18-.32,1.51c-.49,2-.82,2.35-2.81,2.78l-42.95,9.2,0-.23,39.09-10,.08-.38Z" transform="translate(0 -2)"/><path class="cls-1" d="M87.92,74.93a.75.75,0,0,0,.73-.64l3.79-17.84c.15-.63-.32-1-1-.82l-.34.09L87,75.13ZM86.76,54.07l8.09-1.71a1.75,1.75,0,0,1,.4,0,1.92,1.92,0,0,1,1.81,1.53,2.16,2.16,0,0,1,0,.76L95.32,67.67a3.79,3.79,0,0,1-.17.64l-2.57,6.9a2.44,2.44,0,0,1-2,1.75l-9.07,1.92Z" transform="translate(0 -2)"/><path class="cls-2" d="M8.87,97a4.69,4.69,0,0,0-.14-1.27A1.3,1.3,0,0,0,8.27,95a1.59,1.59,0,0,0-.82-.27c-.35,0-.77,0-1.26,0H3.13v4.67H6.19c.49,0,.91,0,1.26,0A1.69,1.69,0,0,0,8.27,99a1.28,1.28,0,0,0,.46-.67,4.56,4.56,0,0,0,.14-1.26ZM0,107.38V92.16H6.14A20.08,20.08,0,0,1,9,92.33a4.13,4.13,0,0,1,1.83.7,2.89,2.89,0,0,1,1,1.48,8.75,8.75,0,0,1,.3,2.53,8.63,8.63,0,0,1-.3,2.52,2.78,2.78,0,0,1-1,1.47,4,4,0,0,1-1.83.69,18.52,18.52,0,0,1-2.82.18h-3v5.48Z" transform="translate(0 -2)"/><path class="cls-2" d="M26.19,92.16h3.1V101a17.6,17.6,0,0,1-.23,3,4.3,4.3,0,0,1-.93,2.07,4.12,4.12,0,0,1-1.94,1.17,32,32,0,0,1-9.91,0,4.12,4.12,0,0,1-2-1.17,4.23,4.23,0,0,1-1-2.07,15.66,15.66,0,0,1-.25-3V92.16h3.11V101a14.72,14.72,0,0,0,.1,1.9,2.9,2.9,0,0,0,.46,1.28,2,2,0,0,0,1,.72,25.34,25.34,0,0,0,6.85,0,1.86,1.86,0,0,0,1-.72,3,3,0,0,0,.44-1.28,14.42,14.42,0,0,0,.11-1.9Z" transform="translate(0 -2)"/><polygon class="cls-2" points="35.11 105.38 35.11 92.69 30.44 92.69 30.67 90.16 43.22 90.16 42.98 92.69 38.24 92.69 38.24 105.38 35.11 105.38"/><path class="cls-2" d="M42.9,99.74a11.38,11.38,0,0,1,.61-4.11,5.63,5.63,0,0,1,1.63-2.39,5.34,5.34,0,0,1,2.42-1.12,31.47,31.47,0,0,1,8.34,0,5.34,5.34,0,0,1,2.42,1.12A5.63,5.63,0,0,1,60,95.63a14.18,14.18,0,0,1,0,8.23,5.7,5.7,0,0,1-1.63,2.39,5.56,5.56,0,0,1-2.42,1.12,32.34,32.34,0,0,1-8.34,0,5.56,5.56,0,0,1-2.42-1.12,5.7,5.7,0,0,1-1.63-2.39,11.44,11.44,0,0,1-.61-4.12m5.93-5.3a2.63,2.63,0,0,0-1.42.6,3.31,3.31,0,0,0-1,1.6,13.57,13.57,0,0,0,0,6.21,3.31,3.31,0,0,0,1,1.6,2.54,2.54,0,0,0,1.42.59,46.45,46.45,0,0,0,5.78,0,2.57,2.57,0,0,0,1.42-.59,3.4,3.4,0,0,0,1-1.6,13.21,13.21,0,0,0,0-6.21A3.41,3.41,0,0,0,56,95a2.72,2.72,0,0,0-1.44-.6A50.14,50.14,0,0,0,48.83,94.44Z" transform="translate(0 -2)"/><path class="cls-2" d="M70.44,99.36c.5,0,.91,0,1.25,0a1.67,1.67,0,0,0,.83-.29,1.31,1.31,0,0,0,.46-.7A4.43,4.43,0,0,0,73.12,97,4.69,4.69,0,0,0,73,95.71a1.27,1.27,0,0,0-.46-.7,1.67,1.67,0,0,0-.83-.27c-.34,0-.76,0-1.25,0H65.21v4.67Zm3,8-4-5.48H65.21v5.48H62.08V92.16H70.4a20.08,20.08,0,0,1,2.82.17A4,4,0,0,1,75,93a2.91,2.91,0,0,1,1,1.48,8.75,8.75,0,0,1,.3,2.53,10.43,10.43,0,0,1-.18,2.11,3.4,3.4,0,0,1-.6,1.4,2.71,2.71,0,0,1-1.09.84,5.81,5.81,0,0,1-1.67.42L77,107.38Z" transform="translate(0 -2)"/><path class="cls-2" d="M83,100.88h3.41l-1.21-4-.42-2.39h-.14l-.43,2.39Zm3.44-8.72,5.38,15.22H88.45l-1.33-4.29H82.35l-1.3,4.29H77.63L83,92.16Z" transform="translate(0 -2)"/><polygon class="cls-2" points="106.94 105.38 95.83 94.03 95.83 105.38 92.8 105.38 92.8 90.16 96.12 90.16 107.22 101.5 107.22 90.16 110.23 90.16 110.23 105.38 106.94 105.38"/><path class="cls-2" d="M116.63,100.88h3.42l-1.21-4-.43-2.39h-.14l-.43,2.39Zm3.44-8.72,5.38,15.22H122l-1.33-4.29H116l-1.31,4.29h-3.41l5.38-15.22Z" transform="translate(0 -2)"/><path class="cls-3" d="M65.75,8.6,63.16,20.9a6.91,6.91,0,0,0-.26,2.56,6,6,0,0,0,5.91,5.27A9.58,9.58,0,0,0,71,28.37l46.67-9.93a4.12,4.12,0,0,0-.27-8.18L72.72,3.8a6.62,6.62,0,0,0-1.1-.1,6,6,0,0,0-5.69,4.19c-.07.23-.13.47-.18.71" transform="translate(0 -2)"/><path class="cls-4" d="M33.53,51.84l10.78,7.83h0a5.72,5.72,0,0,0,3.34,1.06,5.79,5.79,0,0,0,5.6-4.32h0c0-.16.07-.32.1-.49L63.64,7.11a4.05,4.05,0,0,0-2.13-4.77,4,4,0,0,0-5,1.68l-25,39.49c-.08.14-.17.27-.25.42a5.68,5.68,0,0,0-.73,2.81,5.76,5.76,0,0,0,2.2,4.51c.26.22.52.39.8.59" transform="translate(0 -2)"/><path class="cls-5" d="M31.73,53.38c9.16,6.71,19,13.7,28.18,20.32a4.19,4.19,0,0,1,1.43,1.73,4.63,4.63,0,0,1-4.93,6.51l-31.6-4.46c-3.19-.45-4.69-3.07-4-6.51l3.08-14.59A5.43,5.43,0,0,1,24.86,54a4.68,4.68,0,0,1,3.72-1.84,5.31,5.31,0,0,1,3.15,1.22" transform="translate(0 -2)"/><polygon class="cls-6" points="88.28 126.66 88.28 123.2 79.16 123.2 79.16 121.44 85.86 109.83 87.96 109.83 81.12 121.68 88.28 121.68 88.28 117.2 90.16 117.2 90.16 121.68 92.36 121.68 92.36 123.2 90.16 123.2 90.16 126.66 88.28 126.66"/><path class="cls-6" d="M33.09,128.66v-4.32a4.47,4.47,0,0,1,.29-1.7,3.48,3.48,0,0,1,.76-1.18,3.67,3.67,0,0,1,1.12-.77,9.37,9.37,0,0,1,1.38-.51c.5-.14,1-.26,1.53-.37s1-.24,1.56-.38,1.1-.29,1.5-.42a3.07,3.07,0,0,0,1-.49,1.62,1.62,0,0,0,.51-.78,4.13,4.13,0,0,0,.16-1.3,2.93,2.93,0,0,0-1-2.5,4.67,4.67,0,0,0-2.81-.71,11,11,0,0,0-1.35.09c-.48.06-.94.14-1.39.23l-1.23.3a6.47,6.47,0,0,0-.84.29l-.67-1.37a3.66,3.66,0,0,1,1.11-.44,15.24,15.24,0,0,1,1.5-.31c.53-.09,1.07-.15,1.63-.2s1.06-.06,1.55-.06a12.65,12.65,0,0,1,2,.15,4.52,4.52,0,0,1,1.72.65A3.55,3.55,0,0,1,44.31,114a5.41,5.41,0,0,1,.46,2.44,5.83,5.83,0,0,1-.36,2.26A3.07,3.07,0,0,1,43.27,120a6.87,6.87,0,0,1-2,.84c-.83.21-1.82.46-3,.73-.56.14-1,.27-1.45.39a3.45,3.45,0,0,0-1,.47,1.65,1.65,0,0,0-.6.75,3.45,3.45,0,0,0-.19,1.23v2.72h9.74v1.5Z" transform="translate(0 -2)"/><path class="cls-6" d="M66.48,128.66v-4.32a4.69,4.69,0,0,1,.28-1.7,3.5,3.5,0,0,1,.77-1.18,3.67,3.67,0,0,1,1.12-.77,9.37,9.37,0,0,1,1.38-.51c.49-.14,1-.26,1.53-.37s1-.24,1.56-.38,1.1-.29,1.5-.42a3,3,0,0,0,.95-.49,1.57,1.57,0,0,0,.52-.78,4.13,4.13,0,0,0,.16-1.3,2.93,2.93,0,0,0-1-2.5,4.73,4.73,0,0,0-2.82-.71,10.89,10.89,0,0,0-1.34.09c-.48.06-.95.14-1.39.23l-1.23.3a6.47,6.47,0,0,0-.84.29L67,112.77a3.66,3.66,0,0,1,1.11-.44,14.12,14.12,0,0,1,1.5-.31c.53-.09,1.07-.15,1.62-.2s1.07-.06,1.55-.06a12.68,12.68,0,0,1,2,.15,4.52,4.52,0,0,1,1.72.65A3.6,3.6,0,0,1,77.69,114a5.4,5.4,0,0,1,.47,2.44,5.83,5.83,0,0,1-.36,2.26A3.07,3.07,0,0,1,76.66,120a6.94,6.94,0,0,1-2,.84c-.82.21-1.81.46-3,.73l-1.44.39a3.23,3.23,0,0,0-1,.47,1.65,1.65,0,0,0-.6.75,3.24,3.24,0,0,0-.19,1.23v2.72h9.74v1.5Z" transform="translate(0 -2)"/><path class="cls-6" d="M63.33,120.32a19.05,19.05,0,0,1-.16,2.52c-.27,2.11-1.51,4.23-4.1,4.44-.64,0-1.86.08-3.16.08h-.57s-2.83-.06-3.16-.08c-2.59-.21-3.83-2.33-4.1-4.44a19.92,19.92,0,0,1,0-5c.27-2.12,1.51-4.23,4.1-4.44.33,0,3.16-.12,3.16-.08h.57c1.3,0,2.52,0,3.16.08,2.59.21,3.83,2.32,4.1,4.44a18.94,18.94,0,0,1,.16,2.52m-17.28,0a12.51,12.51,0,0,0,.65,4.46,5.66,5.66,0,0,0,4.39,3.8,27.12,27.12,0,0,0,4.51.3,25.7,25.7,0,0,0,4.56-.3,5.91,5.91,0,0,0,2.62-1.21,6.21,6.21,0,0,0,1.77-2.59,15.4,15.4,0,0,0,0-8.92,6.14,6.14,0,0,0-1.77-2.59,5.91,5.91,0,0,0-2.62-1.21,24.79,24.79,0,0,0-4.56-.3,27.12,27.12,0,0,0-4.51.3,5.66,5.66,0,0,0-4.39,3.8A12.48,12.48,0,0,0,46.05,120.32Z" transform="translate(0 -2)"/></svg>