<svg xmlns="http://www.w3.org/2000/svg" viewBox="0 0 86.41 72.77"><defs><style>.cls-1,.cls-2{fill:#fff;}.cls-1,.cls-4,.cls-5{fill-rule:evenodd;}.cls-3{fill:#243d70;}.cls-4{fill:#a6bcd4;}.cls-5{fill:#ef7d00;}</style></defs><g id="Слой_2" data-name="Слой 2"><g id="Слой_1-2" data-name="Слой 1"><path class="cls-1" d="M43.35,33c.14-.65-.08-.74-.56-1.12L40,29.68a1.33,1.33,0,0,1-.34-1.63l2.08-5.59c.52-1.39.78-1.66,2.15-1.95l38.88-8.27,0,.16L45.5,21.21l0,.28,1.82-.39a2.23,2.23,0,0,1,.27,0,1.29,1.29,0,0,1,1.28,1.28,1.65,1.65,0,0,1,0,.21l-.71,3.32-2.95.62.17-2.68a.41.41,0,0,0-.42-.43h-.05c-.16.05-.31.15-.39.5l-.55,2.52c0,.12,0,.27-.06.37-.08.35-.12.54.22.8l.36.28,2,1.59A1.38,1.38,0,0,1,47,31.13l-1,4.8c-.35,1.62-1.05,2-2.67,2.33L39.86,39a1.27,1.27,0,0,1-.28,0,1.28,1.28,0,0,1-1.27-1.28,1.34,1.34,0,0,1,0-.2l.87-4.12,2.83-.6-.21,3.55a.41.41,0,0,0,.41.35.44.44,0,0,0,.43-.42h0Z"/><polygon class="cls-2" points="46.72 37.54 50.35 20.45 53.17 19.86 53.98 28.2 53.97 29.24 56.1 19.23 58.92 18.63 55.29 35.72 52.04 36.41 51.03 30.92 51.01 30.03 49.54 36.94 46.72 37.54"/><polygon class="cls-2" points="73.66 22.13 70.78 32.43 66.29 33.38 68.58 16.59 71.23 16.04 69.86 26.91 73 15.64 77.16 14.76 75.91 25.63 78.93 14.37 82.46 13.63 76.96 31.11 72.46 32.07 73.66 22.13"/><path class="cls-1" d="M60.92,32.75c.52-.11.56-.35.65-.76l2.56-12.07c.09-.42-.08-.6-.42-.53a.88.88,0,0,0-.64.75L60.51,32.22c-.09.42.15.58.41.53m-2.74-8.18a1.49,1.49,0,0,1,.11-.44l1.77-4.75a1.76,1.76,0,0,1,1.4-1.29l4.48-.95a1.18,1.18,0,0,1,.27,0,1.32,1.32,0,0,1,1.25,1.05,1.88,1.88,0,0,1,0,.53l-1.21,9a2.4,2.4,0,0,1-.12.44l-1.77,4.75a1.64,1.64,0,0,1-1.4,1.2L58.5,35a1.08,1.08,0,0,1-.73,0A1.24,1.24,0,0,1,57,34.2a2.49,2.49,0,0,1,0-.86Z"/><path class="cls-1" d="M48,46.78l.43-.09c.32-.07.44-.13.55-.44l.93-2.41a1.92,1.92,0,0,0,.15-.74l.19-3c0-.28-.14-.4-.34-.35l-.43.09Zm-5.16,9,3.63-17.08,5.73-1.22a1.27,1.27,0,0,1,.28,0,1.28,1.28,0,0,1,1.27,1.27,1.36,1.36,0,0,1,0,.21L52.45,45a3.39,3.39,0,0,1-.66,1.41,2.86,2.86,0,0,1-.87.71L51.28,54l-3.5.74V48.57l-.11-.14-1.41,6.62Z"/><polygon class="cls-1" points="51.6 53.92 55.23 36.84 58.63 36.11 55 53.19 51.6 53.92"/><path class="cls-1" d="M65,51.07,68.64,34l8-1.7L76,34.18l-4.35.93-1.17,5.47,3.75-.8-.59,1.87-3.55.77-1.3,6.14,4.53-1-.17.81-.22,1c-.34,1.37-.57,1.62-1.94,1.91L41.41,57.63l0-.16,26.92-6.9.06-.26Z"/><path class="cls-1" d="M60.56,50.24c.28-.06.43-.15.5-.45l2.61-12.28c.1-.44-.22-.67-.67-.57l-.23.06L59.92,50.37Zm-.8-14.37,5.57-1.18a1.27,1.27,0,0,1,.28,0,1.34,1.34,0,0,1,1.25,1.57l-1.21,9a2,2,0,0,1-.11.44l-1.77,4.75a1.69,1.69,0,0,1-1.4,1.21L56.12,53Z"/><path class="cls-3" d="M6.11,65.41a3.24,3.24,0,0,0-.1-.87.91.91,0,0,0-.31-.47,1,1,0,0,0-.57-.19q-.36,0-.87,0H2.16v3.21h2.1q.51,0,.87,0a1,1,0,0,0,.57-.19A.92.92,0,0,0,6,66.38a3.24,3.24,0,0,0,.1-.87ZM0,72.58V62.1H4.23a13.12,13.12,0,0,1,1.94.12,2.73,2.73,0,0,1,1.26.48,2,2,0,0,1,.68,1,6.35,6.35,0,0,1,.2,1.74,6.3,6.3,0,0,1-.2,1.74,2,2,0,0,1-.68,1,2.84,2.84,0,0,1-1.26.47,13.12,13.12,0,0,1-1.94.12H2.16v3.77Z"/><path class="cls-3" d="M18,62.1h2.14v6.07a11.42,11.42,0,0,1-.17,2.1,3,3,0,0,1-.63,1.42A2.77,2.77,0,0,1,18,72.5a21.73,21.73,0,0,1-6.83,0,2.83,2.83,0,0,1-1.36-.81,3,3,0,0,1-.65-1.42A11.42,11.42,0,0,1,9,68.17V62.1h2.14v6.06a9.58,9.58,0,0,0,.07,1.3,2,2,0,0,0,.32.89,1.39,1.39,0,0,0,.7.49,17.76,17.76,0,0,0,4.72,0,1.3,1.3,0,0,0,.68-.49,2.17,2.17,0,0,0,.3-.89,9.4,9.4,0,0,0,.08-1.3Z"/><polygon class="cls-3" points="24.18 72.58 24.18 63.85 20.96 63.85 21.13 62.1 29.77 62.1 29.6 63.85 26.34 63.85 26.34 72.58 24.18 72.58"/><path class="cls-3" d="M29.55,67.33A7.92,7.92,0,0,1,30,64.49a4,4,0,0,1,1.12-1.65,3.89,3.89,0,0,1,1.67-.77,22.06,22.06,0,0,1,5.74,0,3.58,3.58,0,0,1,2.79,2.42,9.78,9.78,0,0,1,0,5.67,3.58,3.58,0,0,1-2.79,2.42,22.06,22.06,0,0,1-5.74,0,3.89,3.89,0,0,1-1.67-.77A4,4,0,0,1,30,70.16a7.89,7.89,0,0,1-.42-2.83m4.08-3.65a1.77,1.77,0,0,0-1,.4A2.47,2.47,0,0,0,32,65.19a9.62,9.62,0,0,0,0,4.27,2.42,2.42,0,0,0,.67,1.11,1.86,1.86,0,0,0,1,.41,37.74,37.74,0,0,0,4,0,1.83,1.83,0,0,0,1-.41,2.43,2.43,0,0,0,.68-1.11,9.24,9.24,0,0,0,0-4.27,2.41,2.41,0,0,0-.69-1.11,1.74,1.74,0,0,0-1-.4A32.87,32.87,0,0,0,33.63,63.68Z"/><path class="cls-3" d="M48.52,67.06c.34,0,.63,0,.86,0a1.2,1.2,0,0,0,.57-.19.92.92,0,0,0,.32-.49,3.35,3.35,0,0,0,.1-.89,3.52,3.52,0,0,0-.1-.91.85.85,0,0,0-.32-.48,1.1,1.1,0,0,0-.57-.19c-.23,0-.52,0-.86,0h-3.6v3.21Zm2.06,5.52L47.8,68.81H44.92v3.77H42.76V62.1h5.73a13.12,13.12,0,0,1,1.94.12,2.73,2.73,0,0,1,1.26.48,2,2,0,0,1,.68,1,6.35,6.35,0,0,1,.2,1.74,7.46,7.46,0,0,1-.12,1.46,2.35,2.35,0,0,1-.41,1,1.9,1.9,0,0,1-.75.58,4.1,4.1,0,0,1-1.15.29l2.91,3.83Z"/><path class="cls-3" d="M57.2,68.11h2.35l-.83-2.73-.3-1.65h-.1L58,65.38Zm2.37-6,3.7,10.48H60.92l-.91-3H56.72l-.89,3H53.47L57.18,62.1Z"/><polygon class="cls-3" points="73.66 72.58 66.01 64.77 66.01 72.58 63.92 72.58 63.92 62.1 66.2 62.1 73.86 69.91 73.86 62.1 75.93 62.1 75.93 72.58 73.66 72.58"/><path class="cls-3" d="M80.34,68.11h2.35l-.83-2.73-.3-1.65h-.1l-.29,1.65Zm2.37-6,3.7,10.48H84.06l-.91-3H79.86l-.89,3H76.61L80.32,62.1Z"/><path class="cls-1" d="M45.29,4.55,43.5,13a5,5,0,0,0-.18,1.76,4.1,4.1,0,0,0,4.07,3.63,6.64,6.64,0,0,0,1.48-.25L81,11.33a2.84,2.84,0,0,0-.19-5.64L50.09,1.24a4.77,4.77,0,0,0-.76-.07,4.09,4.09,0,0,0-3.91,2.89,3.92,3.92,0,0,0-.13.49"/><path class="cls-4" d="M23.09,34.33l7.43,5.39h0a4,4,0,0,0,6.16-2.24h0a1.86,1.86,0,0,0,.07-.34L43.83,3.52A2.78,2.78,0,0,0,42.37.24a2.72,2.72,0,0,0-3.46,1.15l-17.2,27.2-.18.29a4,4,0,0,0,1,5.05c.18.15.36.26.55.4"/><path class="cls-5" d="M21.86,35.39c6.3,4.62,13.08,9.44,19.41,14a3,3,0,0,1,1,1.19,3.18,3.18,0,0,1-3.39,4.48L17.09,52c-2.2-.31-3.23-2.11-2.73-4.48l2.12-10a3.67,3.67,0,0,1,.64-1.64,3.23,3.23,0,0,1,2.57-1.27,3.72,3.72,0,0,1,2.17.84"/></g></g></svg>